<mxfile host="app.diagrams.net" modified="2024-02-20T13:16:22.118Z" agent="Mozilla/5.0 (Windows NT 10.0; Win64; x64) AppleWebKit/537.36 (KHTML, like Gecko) Chrome/121.0.0.0 Safari/537.36" etag="xmX4solnKgEtaZ7WM0MT" version="23.1.1" type="github">
  <diagram name="Page-1" id="4GAutQ-LvE0D1idN2Snl">
    <mxGraphModel dx="1323" dy="630" grid="1" gridSize="10" guides="1" tooltips="1" connect="1" arrows="1" fold="1" page="1" pageScale="1" pageWidth="827" pageHeight="1169" math="0" shadow="0">
      <root>
        <mxCell id="0" />
        <mxCell id="1" parent="0" />
        <mxCell id="cTcAzfwj8tePG_xQqD9l-2" value="Messaging Module" style="swimlane;whiteSpace=wrap;html=1;" vertex="1" parent="1">
          <mxGeometry x="340" y="120" width="360" height="640" as="geometry" />
        </mxCell>
        <mxCell id="cTcAzfwj8tePG_xQqD9l-20" value="Text" style="swimlane;whiteSpace=wrap;html=1;" vertex="1" parent="cTcAzfwj8tePG_xQqD9l-2">
          <mxGeometry x="80" y="40" width="200" height="180" as="geometry" />
        </mxCell>
        <mxCell id="cTcAzfwj8tePG_xQqD9l-18" value="Emoji" style="ellipse;whiteSpace=wrap;html=1;" vertex="1" parent="cTcAzfwj8tePG_xQqD9l-20">
          <mxGeometry x="30" y="127" width="140" height="40" as="geometry" />
        </mxCell>
        <mxCell id="cTcAzfwj8tePG_xQqD9l-17" value="Media Sharing" style="ellipse;whiteSpace=wrap;html=1;" vertex="1" parent="cTcAzfwj8tePG_xQqD9l-20">
          <mxGeometry x="30" y="79" width="140" height="40" as="geometry" />
        </mxCell>
        <mxCell id="cTcAzfwj8tePG_xQqD9l-16" value="Text Message" style="ellipse;whiteSpace=wrap;html=1;" vertex="1" parent="cTcAzfwj8tePG_xQqD9l-20">
          <mxGeometry x="30" y="33" width="140" height="40" as="geometry" />
        </mxCell>
        <mxCell id="cTcAzfwj8tePG_xQqD9l-21" value="Audio" style="swimlane;whiteSpace=wrap;html=1;" vertex="1" parent="cTcAzfwj8tePG_xQqD9l-2">
          <mxGeometry x="80" y="230" width="200" height="180" as="geometry" />
        </mxCell>
        <mxCell id="cTcAzfwj8tePG_xQqD9l-22" value="Screen Share" style="ellipse;whiteSpace=wrap;html=1;" vertex="1" parent="cTcAzfwj8tePG_xQqD9l-21">
          <mxGeometry x="30" y="127" width="140" height="40" as="geometry" />
        </mxCell>
        <mxCell id="cTcAzfwj8tePG_xQqD9l-23" value="In Call Messaging" style="ellipse;whiteSpace=wrap;html=1;" vertex="1" parent="cTcAzfwj8tePG_xQqD9l-21">
          <mxGeometry x="30" y="79" width="140" height="40" as="geometry" />
        </mxCell>
        <mxCell id="cTcAzfwj8tePG_xQqD9l-24" value="Audio Call" style="ellipse;whiteSpace=wrap;html=1;" vertex="1" parent="cTcAzfwj8tePG_xQqD9l-21">
          <mxGeometry x="30" y="33" width="140" height="40" as="geometry" />
        </mxCell>
        <mxCell id="cTcAzfwj8tePG_xQqD9l-25" value="Video" style="swimlane;whiteSpace=wrap;html=1;" vertex="1" parent="cTcAzfwj8tePG_xQqD9l-2">
          <mxGeometry x="80" y="440" width="200" height="180" as="geometry" />
        </mxCell>
        <mxCell id="cTcAzfwj8tePG_xQqD9l-26" value="Screen Share" style="ellipse;whiteSpace=wrap;html=1;" vertex="1" parent="cTcAzfwj8tePG_xQqD9l-25">
          <mxGeometry x="30" y="127" width="140" height="40" as="geometry" />
        </mxCell>
        <mxCell id="cTcAzfwj8tePG_xQqD9l-27" value="In Call Messaging" style="ellipse;whiteSpace=wrap;html=1;" vertex="1" parent="cTcAzfwj8tePG_xQqD9l-25">
          <mxGeometry x="30" y="79" width="140" height="40" as="geometry" />
        </mxCell>
        <mxCell id="cTcAzfwj8tePG_xQqD9l-28" value="Video Call" style="ellipse;whiteSpace=wrap;html=1;" vertex="1" parent="cTcAzfwj8tePG_xQqD9l-25">
          <mxGeometry x="30" y="33" width="140" height="40" as="geometry" />
        </mxCell>
        <mxCell id="cTcAzfwj8tePG_xQqD9l-31" value="" style="curved=1;endArrow=classic;html=1;rounded=0;entryX=0;entryY=0.5;entryDx=0;entryDy=0;" edge="1" parent="1" target="cTcAzfwj8tePG_xQqD9l-16">
          <mxGeometry width="50" height="50" relative="1" as="geometry">
            <mxPoint x="210" y="420" as="sourcePoint" />
            <mxPoint x="470" y="430" as="targetPoint" />
            <Array as="points">
              <mxPoint x="210" y="213" />
            </Array>
          </mxGeometry>
        </mxCell>
        <mxCell id="cTcAzfwj8tePG_xQqD9l-32" value="" style="curved=1;endArrow=classic;html=1;rounded=0;entryX=0;entryY=0.5;entryDx=0;entryDy=0;" edge="1" parent="1" target="cTcAzfwj8tePG_xQqD9l-17">
          <mxGeometry width="50" height="50" relative="1" as="geometry">
            <mxPoint x="220" y="420" as="sourcePoint" />
            <mxPoint x="470" y="430" as="targetPoint" />
            <Array as="points">
              <mxPoint x="240" y="310" />
              <mxPoint x="340" y="260" />
            </Array>
          </mxGeometry>
        </mxCell>
        <mxCell id="cTcAzfwj8tePG_xQqD9l-33" value="" style="curved=1;endArrow=classic;html=1;rounded=0;entryX=0;entryY=0.5;entryDx=0;entryDy=0;" edge="1" parent="1" target="cTcAzfwj8tePG_xQqD9l-18">
          <mxGeometry width="50" height="50" relative="1" as="geometry">
            <mxPoint x="220" y="430" as="sourcePoint" />
            <mxPoint x="470" y="430" as="targetPoint" />
            <Array as="points">
              <mxPoint x="270" y="330" />
              <mxPoint x="320" y="307" />
            </Array>
          </mxGeometry>
        </mxCell>
        <mxCell id="cTcAzfwj8tePG_xQqD9l-35" value="" style="endArrow=classic;html=1;rounded=0;" edge="1" parent="1">
          <mxGeometry width="50" height="50" relative="1" as="geometry">
            <mxPoint x="220" y="450" as="sourcePoint" />
            <mxPoint x="450" y="450" as="targetPoint" />
          </mxGeometry>
        </mxCell>
        <mxCell id="cTcAzfwj8tePG_xQqD9l-36" value="" style="curved=1;endArrow=classic;html=1;rounded=0;entryX=0;entryY=0.5;entryDx=0;entryDy=0;" edge="1" parent="1" target="cTcAzfwj8tePG_xQqD9l-24">
          <mxGeometry width="50" height="50" relative="1" as="geometry">
            <mxPoint x="220" y="440" as="sourcePoint" />
            <mxPoint x="340" y="470" as="targetPoint" />
            <Array as="points">
              <mxPoint x="260" y="410" />
              <mxPoint x="380" y="400" />
            </Array>
          </mxGeometry>
        </mxCell>
        <mxCell id="cTcAzfwj8tePG_xQqD9l-40" value="" style="curved=1;endArrow=classic;html=1;rounded=0;entryX=0;entryY=0.5;entryDx=0;entryDy=0;" edge="1" parent="1" target="cTcAzfwj8tePG_xQqD9l-22">
          <mxGeometry width="50" height="50" relative="1" as="geometry">
            <mxPoint x="220" y="460" as="sourcePoint" />
            <mxPoint x="340" y="390" as="targetPoint" />
            <Array as="points">
              <mxPoint x="320" y="510" />
            </Array>
          </mxGeometry>
        </mxCell>
        <mxCell id="cTcAzfwj8tePG_xQqD9l-41" value="" style="curved=1;endArrow=classic;html=1;rounded=0;entryX=0;entryY=0.5;entryDx=0;entryDy=0;" edge="1" parent="1" target="cTcAzfwj8tePG_xQqD9l-28">
          <mxGeometry width="50" height="50" relative="1" as="geometry">
            <mxPoint x="220" y="470" as="sourcePoint" />
            <mxPoint x="390" y="560" as="targetPoint" />
            <Array as="points">
              <mxPoint x="270" y="540" />
              <mxPoint x="370" y="600" />
            </Array>
          </mxGeometry>
        </mxCell>
        <mxCell id="cTcAzfwj8tePG_xQqD9l-42" value="" style="curved=1;endArrow=classic;html=1;rounded=0;entryX=0;entryY=0.5;entryDx=0;entryDy=0;" edge="1" parent="1" target="cTcAzfwj8tePG_xQqD9l-27">
          <mxGeometry width="50" height="50" relative="1" as="geometry">
            <mxPoint x="220" y="480" as="sourcePoint" />
            <mxPoint x="390" y="560" as="targetPoint" />
            <Array as="points">
              <mxPoint x="240" y="530" />
              <mxPoint x="270" y="580" />
              <mxPoint x="310" y="610" />
              <mxPoint x="410" y="660" />
            </Array>
          </mxGeometry>
        </mxCell>
        <mxCell id="cTcAzfwj8tePG_xQqD9l-43" value="" style="curved=1;endArrow=classic;html=1;rounded=0;entryX=0;entryY=0.5;entryDx=0;entryDy=0;" edge="1" parent="1" target="cTcAzfwj8tePG_xQqD9l-26">
          <mxGeometry width="50" height="50" relative="1" as="geometry">
            <mxPoint x="210" y="480" as="sourcePoint" />
            <mxPoint x="390" y="560" as="targetPoint" />
            <Array as="points">
              <mxPoint x="250" y="600" />
              <mxPoint x="300" y="650" />
              <mxPoint x="360" y="690" />
            </Array>
          </mxGeometry>
        </mxCell>
        <mxCell id="cTcAzfwj8tePG_xQqD9l-45" value="Actor" style="shape=umlActor;verticalLabelPosition=bottom;verticalAlign=top;html=1;outlineConnect=0;" vertex="1" parent="1">
          <mxGeometry x="180" y="410" width="30" height="60" as="geometry" />
        </mxCell>
      </root>
    </mxGraphModel>
  </diagram>
</mxfile>
